<svg width="16" height="16" viewBox="0 0 16 16" fill="none" xmlns="http://www.w3.org/2000/svg">
<path fill-rule="evenodd" clip-rule="evenodd" d="M11.7897 6.14058C12.0883 5.81489 12.0663 5.30884 11.7406 5.01028C11.4149 4.71173 10.9089 4.73373 10.6103 5.05943L6.82871 9.18479L5.4146 7.48786C5.13175 7.14844 4.62729 7.10258 4.28787 7.38543C3.94845 7.66828 3.90259 8.17273 4.18544 8.51215L6.18544 10.9122C6.33321 11.0895 6.55038 11.1943 6.78114 11.1998C7.0119 11.2052 7.23377 11.1107 7.38974 10.9406L11.7897 6.14058Z" fill="#0083FE"/>
<path fill-rule="evenodd" clip-rule="evenodd" d="M3.2 0H12.8C14.5673 0 16 1.43269 16 3.2V12.8C16 14.5673 14.5673 16 12.8 16H3.2C1.43269 16 0 14.5673 0 12.8V3.2C0 1.43269 1.43269 0 3.2 0ZM14.4 3.2C14.4 2.31634 13.6837 1.6 12.8 1.6H3.2C2.31635 1.6 1.6 2.31634 1.6 3.2V12.8C1.6 13.6837 2.31635 14.4 3.2 14.4H12.8C13.6837 14.4 14.4 13.6837 14.4 12.8V3.2Z" fill="#0083FE"/>
</svg>
